<svg width="287" height="44" viewBox="0 0 287 44" fill="none" xmlns="http://www.w3.org/2000/svg">
<path d="M51.64 33V32.68L52.28 32.456C53.0053 32.2213 53.368 31.6133 53.368 30.632V14.248C53.368 13.8213 53.3147 13.48 53.208 13.224C53.1227 12.968 52.8773 12.7547 52.472 12.584L51.64 12.2V11.88H57.816L63.736 27.368L69.304 11.88H75.608V12.2L75.096 12.392C74.6907 12.5413 74.4133 12.7547 74.264 13.032C74.1147 13.288 74.04 13.6293 74.04 14.056V30.792C74.04 31.2187 74.0933 31.5493 74.2 31.784C74.3067 32.0187 74.5627 32.2213 74.968 32.392L75.608 32.68V33H67.64V32.68L68.312 32.392C68.7173 32.2213 68.9733 32.0187 69.08 31.784C69.1867 31.5493 69.24 31.2187 69.24 30.792V23.592L69.304 14.44L62.616 33H61.016L54.04 14.664L54.136 22.632V30.696C54.136 31.1653 54.2 31.5493 54.328 31.848C54.4773 32.1253 54.7547 32.328 55.16 32.456L55.864 32.68V33H51.64ZM84.2048 33.48C82.5834 33.48 81.1754 33.1493 79.9808 32.488C78.7861 31.8053 77.8581 30.8453 77.1968 29.608C76.5568 28.3707 76.2368 26.92 76.2368 25.256C76.2368 23.592 76.5781 22.152 77.2608 20.936C77.9648 19.72 78.9141 18.7813 80.1088 18.12C81.3248 17.4587 82.6901 17.128 84.2048 17.128C85.7194 17.128 87.0741 17.4587 88.2688 18.12C89.4634 18.76 90.4021 19.688 91.0848 20.904C91.7888 22.12 92.1408 23.5707 92.1408 25.256C92.1408 26.9413 91.8101 28.4027 91.1488 29.64C90.5088 30.856 89.5914 31.8053 88.3968 32.488C87.2234 33.1493 85.8261 33.48 84.2048 33.48ZM84.2048 32.84C84.9514 32.84 85.5488 32.6267 85.9968 32.2C86.4448 31.7733 86.7648 31.016 86.9568 29.928C87.1701 28.84 87.2768 27.304 87.2768 25.32C87.2768 23.3147 87.1701 21.768 86.9568 20.68C86.7648 19.592 86.4448 18.8347 85.9968 18.408C85.5488 17.9813 84.9514 17.768 84.2048 17.768C83.4581 17.768 82.8501 17.9813 82.3808 18.408C81.9328 18.8347 81.6021 19.592 81.3888 20.68C81.1968 21.768 81.1008 23.3147 81.1008 25.32C81.1008 27.304 81.1968 28.84 81.3888 29.928C81.6021 31.016 81.9328 31.7733 82.3808 32.2C82.8501 32.6267 83.4581 32.84 84.2048 32.84ZM93.5463 33V32.68L93.9943 32.552C94.7409 32.3387 95.1143 31.816 95.1143 30.984V20.968C95.1143 20.4987 95.0396 20.1573 94.8903 19.944C94.7409 19.7093 94.4529 19.5493 94.0263 19.464L93.5463 19.336V19.016L99.0183 17.16L99.3383 17.48L99.5943 19.4C100.341 18.7387 101.184 18.1947 102.122 17.768C103.061 17.3413 103.989 17.128 104.906 17.128C106.314 17.128 107.392 17.512 108.138 18.28C108.906 19.048 109.29 20.2213 109.29 21.8V31.016C109.29 31.848 109.696 32.3707 110.506 32.584L110.794 32.68V33H103.242V32.68L103.658 32.552C104.405 32.3173 104.778 31.7947 104.778 30.984V20.776C104.778 19.4107 104.096 18.728 102.73 18.728C101.792 18.728 100.768 19.1973 99.6583 20.136V31.016C99.6583 31.848 100.032 32.3707 100.778 32.584L101.066 32.68V33H93.5463ZM117.582 33.48C116.537 33.48 115.598 33.352 114.766 33.096C113.934 32.8613 113.166 32.5627 112.462 32.2L112.494 28.392H112.814L113.902 30.312C114.372 31.1653 114.884 31.8053 115.438 32.232C116.014 32.6373 116.74 32.84 117.614 32.84C118.638 32.84 119.46 32.616 120.078 32.168C120.718 31.6987 121.038 31.08 121.038 30.312C121.038 29.608 120.814 29.032 120.366 28.584C119.918 28.136 119.086 27.7307 117.87 27.368L116.526 26.952C115.225 26.568 114.201 25.9707 113.454 25.16C112.708 24.3493 112.334 23.3573 112.334 22.184C112.334 20.776 112.889 19.5813 113.998 18.6C115.108 17.6187 116.697 17.128 118.766 17.128C119.598 17.128 120.377 17.224 121.102 17.416C121.849 17.5867 122.564 17.8533 123.246 18.216L123.054 21.672H122.734L121.614 19.688C121.209 18.984 120.804 18.4933 120.398 18.216C120.014 17.9173 119.428 17.768 118.638 17.768C117.913 17.768 117.23 17.9707 116.59 18.376C115.95 18.7813 115.63 19.3573 115.63 20.104C115.63 20.8293 115.897 21.4053 116.43 21.832C116.985 22.2587 117.796 22.6533 118.862 23.016L120.302 23.432C121.838 23.9013 122.937 24.552 123.598 25.384C124.26 26.1947 124.59 27.176 124.59 28.328C124.59 29.8853 123.972 31.1333 122.734 32.072C121.518 33.0107 119.801 33.48 117.582 33.48ZM132.064 33.48C130.698 33.48 129.632 33.1387 128.864 32.456C128.117 31.7733 127.744 30.6853 127.744 29.192V18.248H125.536V17.928L126.304 17.8C126.965 17.6507 127.53 17.4373 128 17.16C128.49 16.8827 128.97 16.5093 129.44 16.04L132.064 13.128H132.384L132.288 17.608H135.872V18.248H132.256V29.768C132.256 30.5147 132.416 31.08 132.736 31.464C133.077 31.848 133.504 32.04 134.016 32.04C134.464 32.04 134.858 31.9333 135.2 31.72C135.541 31.4853 135.882 31.176 136.224 30.792L136.544 31.112C136.117 31.8373 135.53 32.4133 134.784 32.84C134.037 33.2667 133.13 33.48 132.064 33.48ZM145.485 17.128C146.871 17.128 148.055 17.416 149.037 17.992C150.018 18.5467 150.765 19.3147 151.277 20.296C151.81 21.256 152.077 22.3547 152.077 23.592C152.077 23.8267 152.066 24.072 152.045 24.328C152.023 24.5627 151.981 24.776 151.917 24.968H142.381C142.402 27.272 142.807 28.936 143.597 29.96C144.407 30.9627 145.602 31.464 147.181 31.464C148.247 31.464 149.111 31.2933 149.773 30.952C150.434 30.6107 151.053 30.1093 151.629 29.448L151.949 29.736C151.287 30.9093 150.402 31.8267 149.293 32.488C148.205 33.1493 146.893 33.48 145.357 33.48C143.842 33.48 142.498 33.16 141.325 32.52C140.151 31.8587 139.234 30.92 138.573 29.704C137.911 28.488 137.581 27.0373 137.581 25.352C137.581 23.6027 137.965 22.12 138.733 20.904C139.501 19.6667 140.482 18.728 141.677 18.088C142.893 17.448 144.162 17.128 145.485 17.128ZM145.389 17.768C144.77 17.768 144.237 17.96 143.789 18.344C143.362 18.7067 143.021 19.368 142.765 20.328C142.53 21.2667 142.402 22.6 142.381 24.328H147.853C148.066 22.0027 147.981 20.328 147.597 19.304C147.213 18.28 146.477 17.768 145.389 17.768ZM153.671 33V32.68L154.151 32.552C154.578 32.424 154.866 32.232 155.015 31.976C155.186 31.72 155.271 31.3893 155.271 30.984V20.968C155.271 20.4987 155.186 20.1573 155.015 19.944C154.866 19.7093 154.578 19.5493 154.151 19.464L153.671 19.336V19.016L159.175 17.16L159.495 17.48L159.783 20.232V20.488C160.082 19.8907 160.466 19.3467 160.935 18.856C161.426 18.344 161.959 17.928 162.535 17.608C163.133 17.288 163.719 17.128 164.295 17.128C165.106 17.128 165.725 17.352 166.151 17.8C166.578 18.248 166.791 18.8133 166.791 19.496C166.791 20.2213 166.578 20.7867 166.151 21.192C165.746 21.576 165.255 21.768 164.679 21.768C163.783 21.768 162.994 21.32 162.311 20.424L162.247 20.36C162.034 20.0613 161.789 19.9013 161.511 19.88C161.234 19.8373 160.978 19.9653 160.743 20.264C160.53 20.456 160.349 20.6907 160.199 20.968C160.071 21.224 159.943 21.5227 159.815 21.864V30.792C159.815 31.6453 160.189 32.1787 160.935 32.392L161.959 32.68V33H153.671ZM171.781 33.48C170.543 33.48 169.498 33.128 168.645 32.424C167.813 31.72 167.397 30.7067 167.397 29.384C167.397 28.3813 167.909 27.464 168.933 26.632C169.957 25.7787 171.567 25.1387 173.765 24.712C174.106 24.648 174.49 24.584 174.917 24.52C175.343 24.4347 175.791 24.3493 176.261 24.264V21.736C176.261 20.2853 176.079 19.272 175.717 18.696C175.375 18.0987 174.831 17.8 174.085 17.8C173.573 17.8 173.167 17.9707 172.869 18.312C172.57 18.632 172.378 19.1973 172.293 20.008L172.229 20.36C172.186 21.2773 171.962 21.9493 171.557 22.376C171.151 22.8027 170.65 23.016 170.053 23.016C169.498 23.016 169.039 22.8453 168.677 22.504C168.314 22.1627 168.133 21.704 168.133 21.128C168.133 20.2533 168.431 19.5173 169.029 18.92C169.647 18.3227 170.458 17.8747 171.461 17.576C172.463 17.2773 173.551 17.128 174.725 17.128C176.623 17.128 178.085 17.5973 179.109 18.536C180.154 19.4533 180.677 20.9573 180.677 23.048V30.12C180.677 31.08 181.125 31.56 182.021 31.56H182.725L183.013 31.816C182.607 32.328 182.159 32.7227 181.669 33C181.199 33.2773 180.527 33.416 179.653 33.416C178.714 33.416 177.967 33.2027 177.413 32.776C176.879 32.328 176.527 31.7413 176.357 31.016C175.717 31.6987 175.055 32.2853 174.373 32.776C173.711 33.2453 172.847 33.48 171.781 33.48ZM173.733 31.528C174.159 31.528 174.554 31.432 174.917 31.24C175.301 31.0267 175.749 30.7067 176.261 30.28V24.904C176.047 24.9467 175.834 24.9893 175.621 25.032C175.407 25.0747 175.162 25.1173 174.885 25.16C173.903 25.416 173.114 25.8533 172.517 26.472C171.941 27.0693 171.653 27.88 171.653 28.904C171.653 29.7787 171.855 30.44 172.261 30.888C172.666 31.3147 173.157 31.528 173.733 31.528ZM190.704 33V32.68L191.344 32.424C191.771 32.2747 192.048 32.072 192.176 31.816C192.325 31.56 192.4 31.2293 192.4 30.824V14.088C192.4 13.6613 192.325 13.32 192.176 13.064C192.048 12.808 191.771 12.6053 191.344 12.456L190.704 12.2V11.88H198.832V12.2L198.288 12.424C197.883 12.5733 197.605 12.776 197.456 13.032C197.307 13.2667 197.232 13.5973 197.232 14.024V21.8H204.88V14.024C204.88 13.5973 204.805 13.2667 204.656 13.032C204.528 12.776 204.251 12.5733 203.824 12.424L203.248 12.2V11.88H211.408V12.2L210.768 12.456C210.363 12.6053 210.085 12.808 209.936 13.064C209.787 13.32 209.712 13.6613 209.712 14.088V30.824C209.712 31.2293 209.787 31.56 209.936 31.816C210.085 32.072 210.363 32.2747 210.768 32.424L211.408 32.68V33H203.248V32.68L203.824 32.488C204.251 32.3173 204.528 32.1147 204.656 31.88C204.805 31.624 204.88 31.2827 204.88 30.856V22.44H197.232V30.856C197.232 31.6453 197.584 32.1893 198.288 32.488L198.832 32.68V33H190.704ZM220.017 33.48C218.396 33.48 216.988 33.1493 215.793 32.488C214.599 31.8053 213.671 30.8453 213.009 29.608C212.369 28.3707 212.049 26.92 212.049 25.256C212.049 23.592 212.391 22.152 213.073 20.936C213.777 19.72 214.727 18.7813 215.921 18.12C217.137 17.4587 218.503 17.128 220.017 17.128C221.532 17.128 222.887 17.4587 224.081 18.12C225.276 18.76 226.215 19.688 226.897 20.904C227.601 22.12 227.953 23.5707 227.953 25.256C227.953 26.9413 227.623 28.4027 226.961 29.64C226.321 30.856 225.404 31.8053 224.209 32.488C223.036 33.1493 221.639 33.48 220.017 33.48ZM220.017 32.84C220.764 32.84 221.361 32.6267 221.809 32.2C222.257 31.7733 222.577 31.016 222.769 29.928C222.983 28.84 223.089 27.304 223.089 25.32C223.089 23.3147 222.983 21.768 222.769 20.68C222.577 19.592 222.257 18.8347 221.809 18.408C221.361 17.9813 220.764 17.768 220.017 17.768C219.271 17.768 218.663 17.9813 218.193 18.408C217.745 18.8347 217.415 19.592 217.201 20.68C217.009 21.768 216.913 23.3147 216.913 25.32C216.913 27.304 217.009 28.84 217.201 29.928C217.415 31.016 217.745 31.7733 218.193 32.2C218.663 32.6267 219.271 32.84 220.017 32.84ZM229.359 33V32.68L229.807 32.552C230.212 32.4453 230.489 32.264 230.639 32.008C230.809 31.752 230.905 31.4107 230.927 30.984V20.968C230.927 20.4987 230.852 20.1573 230.703 19.944C230.553 19.7093 230.265 19.5493 229.839 19.464L229.359 19.336V19.016L234.831 17.16L235.151 17.48L235.407 19.656C236.111 18.952 236.911 18.3547 237.807 17.864C238.724 17.3733 239.673 17.128 240.655 17.128C241.679 17.128 242.5 17.3413 243.119 17.768C243.737 18.1733 244.207 18.8133 244.527 19.688C245.359 18.8987 246.255 18.28 247.215 17.832C248.196 17.3627 249.145 17.128 250.063 17.128C251.577 17.128 252.687 17.4907 253.391 18.216C254.116 18.9413 254.479 20.0827 254.479 21.64V31.016C254.479 31.848 254.863 32.3707 255.631 32.584L255.983 32.68V33H248.591V32.68L248.911 32.584C249.316 32.456 249.593 32.264 249.743 32.008C249.913 31.752 249.999 31.4107 249.999 30.984V21.192C249.999 20.296 249.839 19.688 249.519 19.368C249.199 19.0267 248.687 18.856 247.983 18.856C247.428 18.856 246.884 18.984 246.351 19.24C245.839 19.4747 245.295 19.8373 244.719 20.328C244.825 20.6693 244.889 21.0427 244.911 21.448C244.953 21.8533 244.975 22.28 244.975 22.728V31.016C244.996 31.848 245.38 32.3707 246.127 32.584L246.415 32.68V33H238.991V32.68L239.439 32.552C239.844 32.424 240.121 32.2427 240.271 32.008C240.441 31.752 240.527 31.4107 240.527 30.984V21.224C240.527 20.3707 240.367 19.7627 240.047 19.4C239.748 19.0373 239.225 18.856 238.479 18.856C237.988 18.856 237.497 18.984 237.007 19.24C236.516 19.4747 236.004 19.8267 235.471 20.296V31.016C235.471 31.848 235.844 32.3707 236.591 32.584L236.879 32.68V33H229.359ZM265.266 17.128C266.652 17.128 267.836 17.416 268.818 17.992C269.799 18.5467 270.546 19.3147 271.058 20.296C271.591 21.256 271.858 22.3547 271.858 23.592C271.858 23.8267 271.847 24.072 271.826 24.328C271.804 24.5627 271.762 24.776 271.698 24.968H262.162C262.183 27.272 262.588 28.936 263.378 29.96C264.188 30.9627 265.383 31.464 266.962 31.464C268.028 31.464 268.892 31.2933 269.554 30.952C270.215 30.6107 270.834 30.1093 271.41 29.448L271.73 29.736C271.068 30.9093 270.183 31.8267 269.074 32.488C267.986 33.1493 266.674 33.48 265.138 33.48C263.623 33.48 262.279 33.16 261.106 32.52C259.932 31.8587 259.015 30.92 258.354 29.704C257.692 28.488 257.362 27.0373 257.362 25.352C257.362 23.6027 257.746 22.12 258.514 20.904C259.282 19.6667 260.263 18.728 261.458 18.088C262.674 17.448 263.943 17.128 265.266 17.128ZM265.17 17.768C264.551 17.768 264.018 17.96 263.57 18.344C263.143 18.7067 262.802 19.368 262.546 20.328C262.311 21.2667 262.183 22.6 262.162 24.328H267.634C267.847 22.0027 267.762 20.328 267.378 19.304C266.994 18.28 266.258 17.768 265.17 17.768ZM278.989 33.48C277.943 33.48 277.005 33.352 276.173 33.096C275.341 32.8613 274.572 32.5627 273.868 32.2L273.901 28.392H274.221L275.309 30.312C275.778 31.1653 276.29 31.8053 276.845 32.232C277.421 32.6373 278.146 32.84 279.021 32.84C280.045 32.84 280.866 32.616 281.485 32.168C282.125 31.6987 282.445 31.08 282.445 30.312C282.445 29.608 282.221 29.032 281.773 28.584C281.325 28.136 280.493 27.7307 279.277 27.368L277.933 26.952C276.631 26.568 275.607 25.9707 274.861 25.16C274.114 24.3493 273.741 23.3573 273.741 22.184C273.741 20.776 274.295 19.5813 275.405 18.6C276.514 17.6187 278.103 17.128 280.173 17.128C281.005 17.128 281.783 17.224 282.509 17.416C283.255 17.5867 283.97 17.8533 284.653 18.216L284.461 21.672H284.141L283.021 19.688C282.615 18.984 282.21 18.4933 281.805 18.216C281.421 17.9173 280.834 17.768 280.045 17.768C279.319 17.768 278.637 17.9707 277.997 18.376C277.356 18.7813 277.036 19.3573 277.036 20.104C277.036 20.8293 277.303 21.4053 277.837 21.832C278.391 22.2587 279.202 22.6533 280.269 23.016L281.709 23.432C283.245 23.9013 284.343 24.552 285.005 25.384C285.666 26.1947 285.997 27.176 285.997 28.328C285.997 29.8853 285.378 31.1333 284.141 32.072C282.925 33.0107 281.207 33.48 278.989 33.48Z" fill="#0D2506"/>
<path d="M27.6663 2.00044C26.5762 1.99206 25.4115 2.10353 24.1722 2.3466C21.088 2.95091 19.6438 4.73451 18.9356 6.88019C19.9792 8.79622 20.8085 10.7366 21.2651 12.9074C20.3706 12.329 19.4295 12.7649 19.1593 13.3265C18.7586 11.449 18.2275 9.73076 17.5007 8.05193C12.9537 5.12844 9.76701 6.30018 9.15204 6.47955C1.27297 8.76856 -0.972595 14.4328 0.359839 20.5849C2.16002 16.9473 8.42525 14.8268 10.941 14.8351C11.584 14.8435 15.3204 15.6314 12.2083 16.5115C7.10214 17.9615 3.04986 20.5933 1.32422 23.7196C2.14232 25.7731 3.31262 27.835 4.76153 29.7879C6.10514 26.2676 8.50912 22.3283 13.7736 19.3025C15.1247 18.523 15.9912 19.3612 14.9104 20.4089C9.92541 25.2199 7.91278 29.1425 7.36304 32.8639C8.98432 34.5654 10.8292 36.1243 12.8139 37.4486C12.963 32.889 14.7054 27.5835 18.0598 23.6526C18.4045 23.0994 20.1097 23.4262 19.5133 24.4069C16.9137 28.6731 15.4881 34.4564 15.367 38.9908C17.7523 40.2648 20.296 41.1952 22.905 41.6645C21.498 38.7142 21.1812 34.9174 22.2621 31.5396C22.7373 30.0477 24.2002 30.8607 23.902 31.8916C22.9702 35.1437 24.7033 39.2255 26.5203 41.9998C28.449 42.0082 30.3964 41.74 32.3252 41.1449C33.4247 40.8096 34.4403 40.114 35.3721 39.1501C34.3192 37.2391 32.8563 35.4538 31.03 34.3558C30.3405 33.9367 30.7319 32.3778 31.9804 33.1153C33.7601 34.1714 35.4839 35.6047 36.9002 37.1972C37.8133 35.7891 38.596 34.096 39.2296 32.2185C36.4623 29.3101 31.468 25.3456 27.2284 23.6945C26.3339 23.3508 26.4178 21.8924 27.9366 22.3199C32.3904 23.5604 37.0679 26.1922 40.1521 28.8575C40.5155 27.1896 40.7764 25.4378 40.9068 23.6693C37.2729 21.356 32.0084 18.0369 27.2005 17.3999C26.3153 17.2826 25.9332 15.8409 27.48 15.908C32.9122 16.1343 37.7108 17.8776 41 20.1407C40.9534 17.7435 40.6646 15.3883 40.0962 13.1924C36.2107 12.0525 29.5206 11.6418 26.9116 12.6811C25.8773 13.0918 24.1256 12.2788 26.278 11.2897C29.7815 9.43741 35.0832 9.37874 39.1644 10.3678C37.1797 5.50896 33.5086 2.04319 27.6663 2.00044Z" fill="#306E21"/>
</svg>
